<?xml version="1.0" standalone="no"?>
<!DOCTYPE svg PUBLIC "-//W3C//DTD SVG 1.1//EN" "http://www.w3.org/Graphics/SVG/1.1/DTD/svg11.dtd">
<svg xmlns="http://www.w3.org/2000/svg">
<metadata>Copyright (C) 2016 by original authors @ fontello.com</metadata>
<defs>
<font id="fontello" horiz-adv-x="1000" >
<font-face font-family="fontello" font-weight="400" font-stretch="normal" units-per-em="1000" ascent="850" descent="-150" />
<missing-glyph horiz-adv-x="1000" />
<glyph glyph-name="champagne" unicode="&#xe800;" d="M217 149l-44-241-62 12-6-31 155-29 6 31-62 12 44 241c2 0 3 0 5 0 104 0 209 134 242 315l-398 73c-34-184 19-350 120-383z m159 104c-39-50-82-78-123-78-5 0-10 0-15 1-42 8-77 46-99 108-7 22-13 45-16 70h310c-16-38-35-73-57-101z m-253 242l335-61c-4-17-9-33-14-49h-325c-2 35-1 72 4 110z m687-601l-32 242c101 28 163 191 138 377l-402-54c25-185 127-327 232-327l33-243-63-8 4-31 157 21-4 31-63-8z m-260 538l338 45c3-32 3-62 0-92h-327c-4 15-8 31-11 47z m197-268c-69 0-137 79-176 190h313c-16-104-63-181-126-190-4 0-8 0-11 0z m-431 399l-119 119-23-22 119-119 23 22z m27 82l-85 133-26-17 85-133 26 17z m106-18l-59 163-29-11 58-163 30 11z m81 222l-32-1 8-189 32 2-8 188z m140-70l-30 11-60-163 30-11 60 163z m19-177l102 125-24 20-102-125 24-20z m-17-84l115 64-16 28-114-64 15-28z" horiz-adv-x="1000" />

<glyph glyph-name="cheesecake" unicode="&#xe801;" d="M915 572c-1 1-3 2-5 3l0 0-443 121c18 41 51 88 113 122l-16 28c-71-40-108-95-128-142l-120 33c-7 2-15-2-18-9l-211-457 0 0c-1-2-2-4-2-6v-399c0-5 3-10 7-13 2-1 6-2 9-2 2 0 3 0 5 1l806 295c6 2 10 8 10 14v399c0 5-3 9-7 12z m-41-114c-3-8-10-15-18-22-9-10-19-20-25-35-8-21-8-41-8-62 0-53-3-101-46-123-18-9-33-12-46-8-14 5-25 16-35 35-3 6-6 13-9 21-13 32-30 71-69 79-31 7-65-4-89-29-13-14-19-32-24-51-8-23-13-38-26-43-9-4-23-1-37 1-25 4-59 10-76-23-11-21-7-44-4-66 3-21 6-40-2-54-11-18-62-21-84-8-17 9-37 39-53 62-7 10-13 18-18 26l-6 7c-28 37-39 49-83 51v38l765 280c3-25 3-55-7-76z m-459 143l31 1c0 1 0 14 3 34 2 0 5 0 8 0 13 0 29-3 35-6 16-6 27-31 29-51 1-22-6-47-20-69-15-24-38-38-66-41-27-2-45 3-62 17-20 18-38 50-40 72-3 24 1 56 16 68 8 6 24 12 40 12 7 0 16-2 22-8 1-2 3-3 5-4-2-14-1-23-1-25z m-94 102l105-28c-2-5-3-10-4-14-9 5-20 8-33 8-21 0-44-7-58-18-28-21-33-64-29-97 4-34 28-71 51-91 19-17 42-25 69-25 5 0 10 0 16 0 38 4 69 23 89 55 18 27 27 60 25 89-2 22-13 50-32 67l335-92-724-265 190 411z m-205-814v296c30-1 35-8 58-39l6-7c5-7 11-15 17-24 19-28 41-59 64-72 13-8 32-12 52-12 30 0 61 9 74 31 14 23 10 50 6 74-3 19-5 36 0 47 6 12 16 12 44 7 18-3 36-6 53 1 28 11 37 38 44 63 5 16 10 30 18 39 16 16 39 24 59 20 24-5 36-34 47-61 4-8 7-16 10-23 14-26 32-43 53-50 21-7 45-4 70 9 63 33 63 104 63 151 0 20 0 35 6 50 4 9 11 17 19 25 4 4 8 8 12 13v-255l-775-283z" horiz-adv-x="1000" />

<glyph glyph-name="cocktail" unicode="&#xe802;" d="M922 725l15 28-179 97-186-298h-506l411-401v-270h-131v-31h293v31h-131v270l411 401h-311l161 257 153-84z m-370-204l-68-109h-230l-111 109h409z m148-140l-207-202-207 202h414z m143 140l-111-109h-211l68 109h254z" horiz-adv-x="1000" />

<glyph glyph-name="coffee-cup" unicode="&#xe803;" d="M985 401c-32 40-101 40-135 36 0 4 0 7 0 10 0 6-1 13-1 19h-820c-1-6-1-13-1-19 0-261 184-472 411-472 69 0 135 19 192 54 77 27 285 110 351 253 23 51 24 91 3 119z m-367-343c-14-5-23-8-24-8l2-5c-48-25-101-39-157-39-207 0-375 191-380 430h760c-4-164-84-305-201-378z m336 237c-42-91-152-158-239-198 75 78 124 187 133 309 32 4 91 4 112-24 14-18 12-47-6-87z m-951-371h872v31h-872v-31z m201-64h469v31h-469v-31z m-47 518l-15-3-16-3c2-7 36-191 210-298l16 26c-161 100-195 276-195 278z m263 312c3-4 6-8 9-13 16-25 26-45 23-77-3-23-12-33-26-48-6-6-12-13-19-22l25-18c6 7 11 13 17 19 15 17 30 32 33 66 4 40-8 68-28 98-3 4-6 9-9 13-12 17-24 33-26 50-3 28 4 45 18 68l-27 16c-17-27-26-52-22-88 3-25 18-46 32-64z" horiz-adv-x="1000" />

<glyph glyph-name="decor" unicode="&#xe804;" d="M192 436l123-192c3-4 8-7 13-7 2 0 3 0 5 1 6 2 11 8 11 15v230c18 7 38 13 57 20l137-193c3-4 8-6 13-6 1 0 3 0 5 0 6 3 10 9 10 16l-10 241c22 10 45 19 68 29l133-167c3-4 7-6 12-6 2 0 4 0 6 1 6 3 10 9 9 16l-19 223c22 11 43 23 65 34l112-183c3-5 8-8 13-8 1 0 3 1 4 1 7 2 11 7 11 14l10 270c7 5 14 10 20 14l-18 25c-379-276-970-402-976-404l6-30c2 1 73 16 180 46z m757 328l-7-197-85 140c31 18 62 37 92 57z m-214-122l14-160-96 121c27 12 55 25 82 39z m-209-93l7-179-102 144c31 11 63 23 95 35z m-213-76v-168l-91 140c29 9 59 18 91 28z m-295-129l-18-25c2-1 22-16 58-36v-222c0-7 5-13 11-15 2 0 3-1 5-1 5 0 9 3 12 7l120 162c18-7 37-15 58-21l-13-226c0-6 4-13 10-15 2-1 4-1 5-1 5 0 10 2 13 6l145 192c23-5 46-9 71-13l8-234c1-7 5-13 12-15 1 0 3 0 4 0 5 0 10 3 13 8l124 225c21-1 42-2 64-2 9 0 19 0 30 1l86-233c2-6 8-10 14-10 0 0 1 0 1 0 6 1 12 5 14 11l76 248c17 3 35 6 53 9l-6 30c-577-108-966 167-970 170z m71-237v159c25-12 54-26 87-40l-87-119z m195-91l10 167c29-10 62-19 97-27l-107-140z m248-58l-6 173c31-4 63-7 96-9l-90-164z m317-19l-67 181c40 1 82 5 126 10l-59-191z" horiz-adv-x="1000" />

<glyph glyph-name="dress" unicode="&#xe805;" d="M677 453l34 397h-65c0-148-131-210-131-210s-131 62-131 210h-66l35-397c0 0-192-393-157-603h638c35 210-157 603-157 603z m129-572h-582c-5 81 17 197 67 338 43 121 90 219 90 220l4 8 0 8-32 364h1c17-144 142-204 148-207l13-6 13 6c6 3 131 63 147 207h2l-32-364 0-8 3-8c1-1 48-99 91-220 50-141 72-257 67-338z m-307 628h32v57h-32v-57z m0-97h32v57h-32v-57z m0-97h32v57h-32v-57z m0-97h32v57h-32v-57z" horiz-adv-x="1000" />

<glyph glyph-name="firework" unicode="&#xe806;" d="M466-147l184 510-367-41 183-469z m-1 89l-34 85 54-29-20-56z m31 86l-82 44-32 82 132-74-18-52z m108 299l-10-27-41 21 51 6z m-107-12l86-45-24-67-176 99 114 13z m51-142l-23-63-161 90-37 95 3 1 218-123z m-277 510l128-300 14 5-94 312-48-17z m194-218l27 325-51 1 9-325 15-1z m36-93l13-8 183 270-44 26-152-288z m60 292l60 32 60-32-11 67 49 48-68 10-30 61-30-61-68-10 49-48-11-67z m34 94l16 2 8 15 2 5 2-5 8-15 16-2 5-1-4-3-12-12 3-16 1-5-4 2-15 8-14-8-5-2 1 5 3 16-12 12-4 3 5 1z m277-212l-68 10-31 62-30-62-68-10 49-48-12-67 61 32 61-32-11 67 49 48z m-71-25l-12-12 3-16 1-6-5 3-15 8-14-8-5-3 1 6 3 16-12 12-4 4 5 0 17 3 7 15 2 5 3-5 7-15 16-3 6 0-4-4z m-503-62l12 77-68-37-68 36 13-76-55-54 77-11 34-69 34 69 76 12-55 53z m-26-34l-16-2-7-15-6-13-6 13-8 15-16 2-14 2 10 10 12 11-3 16-3 14 13-6 15-8 14 8 12 6-2-13-3-17 12-11 10-10-14-2z m25 335c25 0 45 20 45 45 0 25-20 45-45 45-25 0-45-20-45-45 0-25 20-45 45-45z m0 59c7 0 14-6 14-14 0-8-7-14-14-14-8 0-14 6-14 14 0 8 6 14 14 14z m492-159c27 0 50 22 50 50 0 28-23 50-50 50-28 0-50-22-50-50 0-28 22-50 50-50z m0 69c10 0 19-9 19-19 0-10-9-19-19-19-11 0-19 9-19 19 0 10 8 19 19 19z m-253-193c21 0 38 17 38 38 0 21-17 38-38 38-21 0-38-17-38-38 0-21 17-38 38-38z m0 44c4 0 7-3 7-6 0-4-3-7-7-7-4 0-7 3-7 7 0 3 3 6 7 6z" horiz-adv-x="1000" />

<glyph glyph-name="friend" unicode="&#xe807;" d="M502 232c93 0 169 75 169 169 0 35-11 68-30 95l2 1-126 341c-2 6-8 10-15 10-6 0-12-3-14-9l-142-362 5-2c-11-22-17-48-17-74 0-94 75-169 168-169z m0 557l91-247c-26 17-57 27-91 27-37 0-72-12-99-33l99 253z m0-251c76 0 138-62 138-137 0-76-62-138-138-138-76 0-137 62-137 138 0 75 61 137 137 137z m0-335c-196 0-355-153-355-342 0-4 1-7 1-11h709c0 4 0 7 0 11 0 189-159 342-355 342z m-323-322c11 162 152 291 323 291 172 0 313-129 324-291h-647z m270 468l-24-19c0-1 31-37 81-37 24 0 53 8 86 34l-19 25c-74-59-119-9-124-3z m-16 59c14 0 29 6 44 18l-20 24c-10-8-19-12-27-11-8 1-13 8-14 8l-24-18c1-2 12-17 34-20 2-1 5-1 7-1z m114 1c2-1 5-1 7-1 15 0 29 6 44 18l-19 24c-10-8-20-12-27-11-9 1-14 8-14 8l-25-18c1-2 13-17 34-20z" horiz-adv-x="1000" />

<glyph glyph-name="gift" unicode="&#xe808;" d="M964 591h-307c35 28 64 71 75 105 12 39 4 116-39 116v-32c0 0 0 0 0 0h0c9-3 18-45 9-75-7-22-24-50-45-72-21-23-45-38-63-40-2 0-4 0-6 0-12 0-23 5-32 16 6 6 13 12 20 20 27 32 45 59 62 92 12 26 28 46 41 54 7 4 12 5 14 5l0 32h0c-9 0-18-3-30-10-23-15-42-44-53-67-17-33-34-57-58-86-11-13-24-22-36-31v1h-3c-6 14-11 30-13 45-9 60-18 132-75 168-15 10-34 15-52 15-40 0-81-22-98-59-22-46-13-119 28-150 24-19 57-36 87-47h-354v-251h65v-490h798v490h65v251z m-434 0h-14v23c4-9 9-16 14-23z m-227 184c11 24 40 41 70 41 13 0 26-4 36-10 43-28 51-86 60-141l0-5c2-11 4-21 7-31-5-4-11-8-17-13l-4-2-3-1-3-2c0 0-2-1-6-1-28 0-84 24-121 52-26 20-36 77-19 113z m182-179v-5h-7c2 2 4 3 7 5z m-418-36h418v-189h-418v189z m66-222h352v-457h-352v457z m735-457h-352v457h352v-457z m65 490h-417v189h417v-189z" horiz-adv-x="1000" />

<glyph glyph-name="ice-cream" unicode="&#xe809;" d="M368 522c4-1 9-1 13-1 22 0 44 6 65 19 16 10 30 24 39 38 18 3 36 9 53 19 64 40 83 125 43 188-26 42-70 65-116 65-24 0-49-7-72-21-11-7-21-16-29-25-20 25-49 38-79 38-18 0-36-5-52-15-46-29-60-89-31-136 5-8 11-15 18-21-8-3-16-7-23-12-55-34-71-105-37-160 22-35 60-54 98-54 22 0 43 5 62 17 23 15 40 36 48 61z m-65-34c-13-9-29-13-45-13-29 0-56 15-72 40-12 19-16 42-10 64 5 22 18 41 37 53 6 3 11 6 18 8l50 18-40 35c-5 4-9 9-13 15-19 31-10 73 22 93 10 7 23 10 35 10 21 0 41-10 54-26l23-30 25 28c7 8 14 14 23 19 16 11 36 16 55 16 37 0 70-18 90-49 30-49 15-114-34-145-12-8-26-13-40-15l-14-2-8-12c-7-11-18-21-29-28-16-10-32-15-49-15-3 0-6 0-9 1l-25 3-8-24c-7-19-19-34-36-44z m291 119l-290-181 46-47-3-4c1-1 6-3 14-8l121-123-4-6c1-1 8-5 19-10l122-125-1-3c0 0 2-1 6-2l83-86-4-4c1-1 7-6 18-10l144-148-271 757z m-17-47l9-24c-12 1-25 3-36 7l27 17z m-62-39c18-7 52-17 82-17 0 0 0 0 0 0l17-45c-61-11-132 3-176 14l77 48z m-162-101l50 31c28-9 94-27 162-27 20 0 40 1 59 5l23-64c-129-30-230 10-267 28l-27 27z m79-80c32-10 73-17 120-17 33 0 68 3 106 12l31-87c-78-24-143-6-174 6l-83 86z m209-215l-82 84c15-3 32-4 50-4 28 0 58 4 91 14l31-87c-42-15-74-11-90-7z m96-99l-62 64c19 1 41 4 66 13l28-79c-14-1-24 0-32 2z m43-32l7-19-18 18c4 0 7 1 11 1z" horiz-adv-x="1000" />

<glyph glyph-name="invite" unicode="&#xe80a;" d="M763 581l-1-2-107 271-626-200 68-174-95-73v-551h995v551l-234 178z m191-184l-83-99-90 230 173-131z m-884 234l567 181 212-540-122-144h-459l-2 2-196 501z m39-185l95-243-162 192 67 51z m-76-87l203-241-203-209v450z m18-476l207 214h477l207-214h-891z m916 18l-209 216 125 148 1 0 0 1 83 98v-463z m-432 355c61 117 148 171 113 263-17 42-60 68-107 68-13 0-25-2-38-6-34-11-59-36-70-65-18 11-39 17-61 17-13 0-25-2-38-6-59-19-90-77-69-131 36-91 156-90 270-140z m-239 202c9 18 26 33 48 40 9 3 18 4 28 4 16 0 32-4 46-12l32-19 12 35c8 21 27 38 51 46 9 3 18 4 28 4 35 0 67-19 78-49 17-44-3-76-47-137-16-22-34-46-51-75-28 11-55 19-82 26-78 23-127 40-145 87-7 16-6 34 2 50z" horiz-adv-x="1000" />

<glyph glyph-name="love" unicode="&#xe80b;" d="M735 783c-101 0-189-56-234-139-45 83-133 139-235 139-147 0-266-119-266-266 0-278 246-353 501-607 273 273 500 341 500 607 0 147-119 266-266 266z m-22-645c-64-52-136-111-212-185-71 69-141 124-203 174-155 123-267 212-267 390 0 130 106 235 235 235 87 0 166-47 207-123l28-51 27 51c41 76 120 123 207 123 129 0 235-105 235-235 0-170-103-253-257-379z m-577 334c-22 141 120 180 126 182l-8 30c-2 0-176-48-149-217 26-163 160-238 166-241l15 27c-2 1-126 71-150 219z m122 197l4-15c0 0 0 0 0 0l-4 15z" horiz-adv-x="1000" />

<glyph glyph-name="magic" unicode="&#xe80c;" d="M881 548l-222 34 133 180-181-132-34 220-34-220-181 132 133-180-223-34 223-33-58-78 0 0-410-477 23-21 388 451 105 77 34-221 34 221 181-132-133 180 222 33z m-247-52l12-16-17 12-41 30-8-50-3-21-3 21-8 50-41-30-17-12 12 16 31 42-52 7-19 3 19 3 52 8-31 42-12 16 17-13 41-30 8 51 3 21 3-21 8-51 41 30 17 13-12-16-31-42 51-8 19-3-19-3-51-7 31-42z m-580-22l83 61 84-61-33 97 84 60-103 0-32 98-31-98-104 0 84-60-32-97z m52 125l23 0 7 22 1 5 2-5 7-22 23 0 5 0-4-2-19-14 7-21 2-5-4 3-19 14-18-14-5-3 2 5 7 21-19 14-3 2 5 0z m445-504l-49 151-49-151-160 1 130-93-50-151 129 94 129-94-50 151 130 93-160-1z m0-102l19-58-50 37-18 13-18-13-50-37 19 58 7 22-18 14-50 35 61-1 23 0 7 22 19 59 19-59 7-22 23 0 61 1-50-35-18-14 7-22z m449 340l-63 0-19 59-19-59-63 0 52-36-20-59 50 37 51-37-20 59 51 36z" horiz-adv-x="1000" />

<glyph glyph-name="music" unicode="&#xe80d;" d="M169 850v-1000h670v1000h-670z m638-969h-607v938h607v-938z m-303 27c146 0 264 119 264 264 0 146-118 265-264 265-146 0-265-119-265-265 0-145 119-264 265-264z m0 497c128 0 233-104 233-233 0-128-105-233-233-233-129 0-233 105-233 233 0 129 104 233 233 233z m0-326c51 0 93 42 93 93 0 52-42 94-93 94-52 0-94-42-94-94 0-51 42-93 94-93z m0 155c34 0 62-27 62-62 0-34-28-62-62-62-34 0-62 28-62 62 0 35 28 62 62 62z m0 245c82 0 148 67 148 148 0 82-66 149-148 149-82 0-148-67-148-149 0-81 66-148 148-148z m0 265c64 0 117-52 117-117s-53-117-117-117c-65 0-117 53-117 117s52 117 117 117z m0-192c42 0 76 34 76 75 0 42-34 76-76 76-42 0-76-34-76-76 0-41 34-75 76-75z m0 120c24 0 44-20 44-45 0-24-20-44-44-44-25 0-45 20-45 44 0 25 20 45 45 45z" horiz-adv-x="1000" />

<glyph glyph-name="photo" unicode="&#xe80e;" d="M656 518c-119 0-216-97-216-217 0-119 97-216 216-216 120 0 217 97 217 216 0 120-97 217-217 217z m0-402c-102 0-185 83-185 185 0 103 83 186 185 186 103 0 186-83 186-186 0-102-83-185-186-185z m0 318c-73 0-132-60-132-133s59-132 132-132c73 0 133 59 133 132s-60 133-133 133z m0-234c-55 0-101 46-101 101 0 56 46 101 101 101 56 0 102-45 102-101 0-55-46-101-102-101z m-566 134h271v168h-271v-168z m32 137h208v-106h-208v106z m796 140h-333l-47 104h-252l-47-104h-160c-43 0-79-35-79-79v-462c0-43 36-79 79-79h839c44 0 79 36 79 79v462c0 44-35 79-79 79z m48-541c0-26-21-48-48-48h-839c-26 0-48 22-48 48v462c0 27 22 48 48 48h180l9 19 38 85h212l38-85 9-19h353c27 0 48-21 48-48v-462z m-790 624h-90v-31h90v31z m299-47h-149v-31h149v31z" horiz-adv-x="1000" />

<glyph glyph-name="postcard" unicode="&#xe80f;" d="M764 581l-2-2-106 271-626-200 68-174-94-73v-551h994v551l-234 178z m191-184l-83-98-90 229 173-131z m-884 234l567 181 211-540-121-144h-272-38-149l-2 2-196 501z m39-185l95-242-161 191 66 51z m-76-87l203-240-203-210v450z m18-476l207 214h159 38 279l208-214h-891z m915 19l-208 215 125 148 1 1 0 0 82 98v-462z m-386 767l-378-111 9-29 378 111-9 29z m54-122l-377-111 8-30 378 112-9 29z m-314-263l377 111-8 30-378-112 9-29z m54-122l378 111-9 29-378-111 9-29z" horiz-adv-x="1000" />

<glyph glyph-name="rocket" unicode="&#xe810;" d="M902 780l-266-197 54-18-141-419 71-24-87-261 29-10 88 261 20-6 0-1 1 0 132-44 140 419 54-18-95 318z m-119-679l-62 20 77 24-15-44z m27 80l-139-43-82 28 1 2 241 75-21-62z m33 98l-241-74 21 62 241 74-21-62z m33 99l-241-75 20 62 242 74-21-61z m33 98l-241-75 18 55 155 48 69-23-1-5z m-211 17l18 53 74-25-92-28z m4 101l183 135 65-218-248 83z m-387 28l55 14-253 214-115-311 55 15 112-428 135 36 1 0 0 0 21 5 70-266 30 8-70 266 72 19-113 428z m-263-37l79 213 174-147-253-66z m250-35l-90 34 76 20 14-54z m-213 2l71 19 152-58 15-56-236 90-2 5z m12-42l235-90 17-63-236 90-16 63z m26-100l236-90 16-64-235 91-17 63z m64-246l-11 46 74-29-63-17z m115 30l-136 53-17 63 236-91 1-3-84-22z" horiz-adv-x="1000" />

<glyph glyph-name="star" unicode="&#xe811;" d="M500 757l126-257c5-9 14-15 24-17l283-41-205-199c-7-7-11-18-9-28l48-282-252 133c-5 3-10 4-15 4-5 0-10-1-15-4l-253-133 49 282c2 10-2 21-9 28l-205 199 283 41c10 2 19 8 24 17l126 257m0 70l-155-313-345-50 250-244-59-344 309 163 309-163-59 344 250 244-346 50-154 313 0 0z" horiz-adv-x="1000" />

<glyph glyph-name="stars" unicode="&#xe812;" d="M328 405l68 126-141-23-100 104-22-142-129-62 128-65 19-142 101 102 142-26-66 128z m-76-71c-8 0-16-4-22-9l-57-57-10 79c-2 10-8 19-17 24l-72 36 73 35c9 5 15 13 17 23l12 80 56-58c6-7 14-10 23-10 1 0 3 0 5 0l79 13-38-71c-5-9-5-20-1-29l37-71-79 14c-2 1-4 1-6 1z m610 235l-33 140-91-112-143 12 78-121-55-133 139 37 109-93 8 144 122 75-134 51z m-5-100c-8-5-14-14-14-25l-5-80-61 52c-6 5-13 8-20 8-3 0-6-1-8-1l-78-21 31 74c4 10 3 20-3 29l-44 68 81-7c0 0 1 0 2 0 9 0 18 4 24 12l51 62 19-78c2-10 9-18 19-22l75-29-69-42z m-485 90l99 43 93-57-11 108 83 70-106 23-41 101-55-94-108-8 72-81-26-105z m19 160l45 3c10 1 20 7 25 15l23 40 17-42c4-10 12-17 22-19l45-10-35-29c-8-7-12-17-11-27l4-45-38 24c-5 3-11 4-17 4-4 0-8-1-12-2l-42-19 11 45c3 10 0 20-7 28l-30 34z m-97-455l-19-24c1-2 182-145 190-391l31 1c-8 261-194 408-202 414z m213-276l31-3c23 269 209 360 211 361l-13 28c-8-4-204-99-229-386z m-42 194l31 1-19 391-31-1 19-391z" horiz-adv-x="1000" />

<glyph glyph-name="whistle" unicode="&#xe813;" d="M991 460c-11 251-194 386-370 390-3 0-7 0-10 0-107 0-205-38-271-105-64-64-96-153-94-258 4-116 59-180 106-212 58-40 128-53 179-53 23 0 43 2 54 6 132 44 191 152 161 295 0 0 0 1 0 1-13 53-66 144-179 144-12 0-24-1-38-3-25-4-43-28-38-54 3-23 23-39 46-39 2 0 5 0 8 1 7 1 14 2 21 2 66 0 85-59 89-72 19-95-14-158-99-186-4-1-12-2-24-2-32 0-88 8-130 39-40 30-60 74-62 136-2 79 20 143 66 189 49 50 124 78 206 78 2 0 5-1 7-1 128-2 270-97 278-300 9-216-105-384-290-426-44-10-94-16-146-20v44h-281v-45c-70 3-118 8-119 8-2 0-3 0-5 0-24 0-44-18-46-42-2-26 16-49 42-51 6-1 56-5 128-9v-65h281v66c59 4 117 11 166 23 232 53 375 257 364 521z m-818-513c-69 3-116 8-118 8-8 1-15 8-14 17 1 8 7 14 15 14 1 0 1 0 2 0 6-1 50-5 115-8v-31z m257-66h-218v141h218v-141z m190 88c-41-9-92-16-151-21v31c56 5 104 11 144 21 201 46 325 225 315 457-9 223-166 328-308 331-3 0-5 0-8 0-91 0-174-32-228-87-52-52-78-124-75-212 2-71 27-125 74-160 55-41 123-45 149-45 10 0 23 0 33 3l0 0 1 1c99 33 142 111 119 221l0 1 0 1c-12 46-50 95-119 95-9 0-18-1-27-2-1-1-1-1-2-1-8 0-14 6-16 13-1 9 5 17 13 18 12 2 23 3 33 3 118 0 147-115 148-120l0-1 0 0c27-127-23-219-139-258-8-2-23-5-45-5-22 0-98 3-161 48-41 28-90 84-92 187-3 96 26 177 84 235 60 61 151 96 249 96 3 0 6 0 9 0 83-2 165-36 226-94 70-66 109-158 113-267 11-247-122-439-339-489z m-339-79l40 21 40-21-8 45 33 31-45 7-20 41-20-41-45-7 32-31-7-45z" horiz-adv-x="1000" />

<glyph glyph-name="baloons" unicode="&#xe814;" d="M83 397l30-3c0 1 17 146 116 156l-3 31c-123-13-143-177-143-184z m918 19c0 142-106 257-236 257-18 0-36-3-53-7-37 89-119 151-214 151-95 0-177-62-214-150-16 4-32 6-48 6-130 0-236-115-236-257 0-129 89-237 205-254-1-2-2-4-4-5-2-4-5-6-9-9-2-2-4-4-7-7-14-13-18-28-11-40 10-20 35-19 48-19l7 0c0-39 1-75 7-110 4-28 6-57 6-97h30c0 28 0 65-6 102-5 33-6 67-6 105l15 0 3 0c1 0 1 0 2 0 11 0 28 1 33 21 6 22-7 35-16 43l-1 1c-6 6-13 12-20 17 77 14 142 67 175 146 7-2 14-3 20-4-1-2-1-3-2-5-3-6-5-11-8-15-2-4-5-6-9-9-2-2-5-4-7-6-14-14-18-29-12-41 11-19 36-19 49-19l7 0c0-39 1-74 6-109 6-36 6-71 6-97h31c0 27-1 64-7 102-5 32-6 66-6 104l16 0 2 0c1 0 2 0 3 0 10 0 27 1 33 21 6 22-8 35-17 44l0 0c-12 12-26 21-40 30 12 0 23 2 33 5 33-79 99-133 176-147-7-5-14-11-20-17l-1-1c-9-8-22-21-16-43 5-20 23-21 33-21 1 0 2 0 2 0l3 0 15 0c0-38-1-72-6-105-5-37-6-74-6-102h30c0 40 2 69 7 97 5 35 6 71 6 110l7 0c13 0 38-1 48 19 7 12 3 27-11 40-2 3-5 5-7 7-4 3-7 5-9 8-2 2-3 4-4 6 116 17 205 125 205 254z m-717-304c-1 0-4 0-6 0l-53 0-3 0c-10 0-17 1-20 2 1 2 2 3 4 5 2 2 4 4 6 5 5 4 9 8 14 15 4 5 7 10 9 15 14-9 29-18 40-29l1-1c7-7 9-9 8-12z m-48 79c-113 0-205 101-205 225 0 125 92 226 205 226 13 0 25-1 38-4-7-24-11-50-11-77 0-113 66-208 159-243-34-78-106-127-186-127z m299 63l0 0c8-8 9-10 9-12-2 0-4 0-6 0l-54 0-2 0c-12 0-18 0-20 1 1 2 2 4 4 6 2 1 4 3 6 5 4 3 9 7 14 14 3 5 6 10 8 15 15-9 29-18 41-29z m-52 51c2 0 5 0 7 0l-2-3-5 3z m15 30c-113 0-205 101-205 226 0 124 92 225 205 225 112 0 204-101 204-225 0-125-92-226-204-226z m301-221c-3-1-10-2-20-2l-53 0-3 0c-2 0-4 0-6 0-1 3 1 5 8 12l1 1c11 11 26 20 40 29 3-5 5-10 9-15 5-7 10-11 14-15 2-1 4-3 6-5 2-2 3-3 4-5z m-34 77c-81 0-153 50-186 129 89 36 153 130 153 241 0 26-3 52-10 76 14 3 28 5 43 5 113 0 206-101 206-226 0-124-93-225-206-225z m-440 371l31-3c0 1 17 146 116 157l-4 30c-123-13-142-177-143-184z" horiz-adv-x="1000" />

<glyph glyph-name="beer" unicode="&#xe815;" d="M814 486c0 0-1 0-2 0-37 0-70-15-93-39l3 80c1 2 3 3 4 5 24 31 27 52 27 89 0 60-4 116-62 159-35 27-85 38-129 48-13 3-25 6-37 9-49 13-118 16-202 9-64-5-120-23-169-54-55-36-84-82-84-135 1-53 9-88 53-116l23-691h553l8 233c22-29 59-48 100-49 0 0 1 0 2 0 67 0 123 51 124 114l4 219c1 64-54 118-123 119z m-140-471h-502l-17 509c6-3 11-6 17-8 29-14 55-25 75-51 28-35 23-75 16-121-2-14-4-28-5-42-1-8 0-16 2-26 1-6 2-13 2-18 1-35 25-101 61-124 13-8 26-12 39-12 48 0 85 48 87 90 1 24 0 48 0 71 0 20-1 40 0 60 1 28 13 46 19 46 2 0 10-5 19-23 5-12 9-27 13-44 11-43 25-96 87-96 5 0 10 0 15 1 69 9 65 85 63 117-2 44-4 88 17 124 3 4 5 8 8 12l-16-465z m-573 642c0 43 23 78 70 108 45 29 95 46 155 51 28 2 54 3 78 3 46 0 84-4 113-12 12-3 25-6 38-9 41-9 88-20 118-42 41-32 49-72 49-135 0-32-3-46-21-70-17-24-32-45-45-68-26-43-24-95-22-140 3-49-2-81-36-85-4-1-8-1-11-1-36 0-45 28-56 73-5 17-9 35-16 50-17 33-35 40-47 40-28 0-49-33-50-76-1-21 0-41 0-62 0-22 1-46 0-69-1-30-29-60-56-60-7 0-15 2-22 7-23 15-46 68-47 98 0 8-1 16-2 23-1 7-3 15-2 19 1 13 3 26 5 39 7 49 14 100-22 145-26 32-57 46-87 60-12 5-24 11-35 17-41 22-48 48-49 96z m75-776l-3 103h500l-4-103h-493z m726 268c-1-46-43-84-93-84l-2 0c-25 0-49 10-66 27-17 16-26 38-26 60l4 219c1 46 43 84 93 84l2 0c25 0 49-10 66-27 17-16 26-38 26-60l-4-219z" horiz-adv-x="1000" />

<glyph glyph-name="cake" unicode="&#xe816;" d="M879 229v147h-122v144h-204v126h-106v-126h-204v-144h-122v-147h-121v-379h1000v379h-121z m-401 386h44v-87h-44v87z m-204-126h452v-107h-452v107z m-121-144h694v-107h-694v107z m816-464h-938v178l141-97 9 12 9-12 151 103 150-103 9 12 9-12 150 103 151-103 9 12 9-12 141 97v-178z m0 216l-150-104-151 104-9-13-8 13-151-104-150 104-9-13-9 13-151-104-150 104v101h938v-101z m-486 563l25 49 23-49c93 88-40 190-40 190 20-44-34-63-43-119-8-56 35-71 35-71z" horiz-adv-x="1000" />

<glyph glyph-name="candles" unicode="&#xe817;" d="M105 235l-3-1c1-3 2-7 3-12v-110l-3-1c1-4 2-8 3-12v-108l-3-1c1-4 2-8 3-12v-128h363v497h-363v-112z m332 81v-101c-26 3-48 9-53 12-3 4-8 21-11 32-5 19-10 37-21 46-7 7-18 9-30 11h115z m-197 0c3-8 7-13 11-17 11-9 30-10 49-12 11-1 28-3 32-5 3-4 8-21 11-32 5-19 10-37 21-46 13-11 48-17 73-21v-91c-26 3-48 8-53 12-3 4-8 21-11 31-5 20-10 38-21 47-11 9-29 11-49 13-10 1-28 2-31 5-4 3-9 21-11 31-5 19-10 37-21 46-11 9-30 11-50 13-10 2-28 3-32 6 0 1-4 4-10 20h92z m-104-42c1-1 1-1 2-1 10-10 29-12 49-14 11-1 29-3 33-6 3-3 8-20 11-30 5-20 10-38 20-47 11-9 30-11 49-12 10-1 28-3 32-6 3-3 8-21 11-31 5-19 10-38 21-47 13-10 48-17 73-20v-92c-26 4-48 9-53 13-3 3-8 21-11 31-5 19-10 38-21 47-11 9-29 11-49 12-10 1-28 3-31 6-4 3-9 20-11 30-5 20-10 38-21 47-11 9-30 11-50 13-10 1-28 3-32 6-5 5-14 28-22 54v47z m0-123c1-1 1-1 2-2 10-9 29-11 49-13 11-1 29-3 33-6 3-3 8-20 11-31 5-19 10-37 20-46 11-9 30-11 49-13 11-1 28-2 32-5 3-3 8-21 11-31 5-20 10-38 21-47 13-11 48-17 73-20v-56h-62c-1 3-1 5-2 8-5 19-10 37-21 46-11 10-29 11-49 13-10 1-28 2-31 5-4 4-9 21-11 31-5 19-10 37-21 47-11 9-30 11-50 13-10 1-28 3-32 6-5 4-14 27-22 53v48z m0-124c1 0 1-1 2-1 10-9 29-11 49-13 11-1 29-3 33-6 3-4 8-21 11-31 5-19 10-37 20-47 11-9 30-10 49-12 11-1 28-3 32-5 3-4 8-20 11-31h-87c-4 13-9 23-16 29-11 9-30 11-50 13-10 1-28 3-32 6-5 4-14 28-22 53v45z m0-121c1 0 1 0 2-1 10-9 29-11 49-13 11-1 29-3 33-6 1-1 2-3 2-5h-86v25z m114 477c-44 85 25 193 25 193s26-24 33-34c58-86 20-159 20-159s100 5 100 161c0 157-174 305-174 305 40-129-91-171-107-301-16-127 103-165 103-165z m-72 161c6 49 30 83 56 119 23 31 46 64 55 106 47-54 107-139 107-225 0-51-11-82-25-101 0 33-8 74-38 116-8 12-30 34-37 40l-27 26-21-32c-2-3-43-69-44-143-18 21-32 51-26 94z m350-332v-362h363v362h-363z m332-331h-301v23h301v-23z m0 54h-301v40h301v-40z m0 72h-301v40h301v-40z m0 71h-301v40h301v-40z m0 72h-301v31h301v-31z m-187 98c-44 85 25 193 25 193s26-24 33-34c58-86 20-159 20-159s100 5 100 161c0 157-174 305-174 305 40-130-91-171-107-301-16-127 103-165 103-165z m-72 161c6 49 31 83 56 119 23 31 47 64 55 106 9-10 18-21 27-33 37-48 81-120 81-192 0-51-12-82-26-101 0 33-8 73-37 116-9 12-31 34-38 40l-27 26-21-32c-2-4-43-69-44-143-18 21-32 51-26 94z" horiz-adv-x="1000" />

<glyph glyph-name="instagram-with-circle" unicode="&#xe818;" d="M703 504a86 86 0 0 1-49 49 144 144 0 0 1-49 9c-27 1-35 2-105 2s-78-1-105-2a144 144 0 0 1-49-9 86 86 0 0 1-49-49 144 144 0 0 1-9-49c-1-27-1-35-1-105s0-78 1-105a144 144 0 0 1 9-49 86 86 0 0 1 49-49 144 144 0 0 1 49-9c27-1 36-1 105-1s78 0 105 1a144 144 0 0 1 49 9 86 86 0 0 1 49 49 144 144 0 0 1 9 49c1 27 2 36 2 105s-1 78-2 105a144 144 0 0 1-9 49z m-203-288a134 134 0 1 0 134 134 134 134 0 0 0-134-134z m139 242a31 31 0 1 0 31 31 31 31 0 0 0-31-31z m-52-108a87 87 0 1 0-87 87 87 87 0 0 0 87-87z m-87 500a500 500 0 1 1 500-500 500 500 0 0 1-500 500z m259-607a191 191 0 0 0-12-64 133 133 0 0 0-76-76 191 191 0 0 0-64-12c-27-1-36-1-107-1s-80 0-107 1a191 191 0 0 0-64 12 133 133 0 0 0-76 76 191 191 0 0 0-12 64c-1 27-1 36-1 107s0 80 1 107a191 191 0 0 0 12 64 133 133 0 0 0 76 76 191 191 0 0 0 64 12c27 1 36 1 107 1s80 0 107-1a191 191 0 0 0 64-12 133 133 0 0 0 76-76 191 191 0 0 0 12-64c1-27 1-36 1-107s0-80-1-107z" horiz-adv-x="1000" />

<glyph glyph-name="instagram" unicode="&#xf16d;" d="M571 350q0 59-41 101t-101 42-101-42-42-101 42-101 101-42 101 42 41 101z m77 0q0-91-64-156t-155-64-156 64-64 156 64 156 156 64 155-64 64-156z m61 229q0-21-15-36t-37-15-36 15-15 36 15 36 36 15 37-15 15-36z m-280 123q-4 0-43 0t-59 0-54-2-57-5-40-11q-28-11-49-32t-33-49q-6-16-10-40t-6-58-1-53 0-59 0-43 0-43 0-59 1-53 6-58 10-40q12-28 33-49t49-32q16-6 40-11t57-5 54-2 59 0 43 0 42 0 59 0 54 2 58 5 39 11q28 11 50 32t32 49q6 16 10 40t6 58 1 53 0 59 0 43 0 43 0 59-1 53-6 58-10 40q-11 28-32 49t-50 32q-16 6-39 11t-58 5-54 2-59 0-42 0z m428-352q0-128-3-177-5-116-69-180t-179-69q-50-3-177-3t-177 3q-116 6-180 69t-69 180q-3 49-3 177t3 177q5 116 69 180t180 69q49 3 177 3t177-3q116-6 179-69t69-180q3-49 3-177z" horiz-adv-x="857.1" />

<glyph glyph-name="snapchat" unicode="&#xf2ab;" d="M714 209q0 13-12 15-38 9-66 33t-45 61q-4 10-4 14 0 8 11 14t24 10 24 11 11 20q0 11-10 18t-22 7q-7 0-18-4t-17-5q-2 0-7 1 3 53 3 64 0 44-9 63-21 44-58 68t-85 24q-111 0-153-92-10-19-10-63 0-11 3-64-2-1-8-1-6 0-18 4t-16 4q-12 0-22-6t-10-18q0-12 11-20t24-11 24-10 11-14q0-4-4-14-35-77-110-94-13-2-13-15 0-25 77-38 1-2 3-14t7-17 13-5q6 0 21 2t22 3q19 0 37-9t30-18 32-18 43-8q24 0 44 8t32 18 30 18 37 9q8 0 23-3t21-2q9 0 13 6t6 17 3 13q77 13 77 38z m143 141q0-117-57-215t-156-156-215-58-216 58-155 156-58 215 58 215 155 156 216 58 215-58 156-156 57-215z" horiz-adv-x="857.1" />

<glyph glyph-name="snapchat-ghost" unicode="&#xf2ac;" d="M473 779q75 0 134-39t92-107q15-32 15-100 0-26-5-106 8-4 15-4 10 0 29 7t28 8q16 0 32-10t15-26q0-18-18-30t-38-18-39-16-18-26q0-9 7-24 21-46 57-84t81-57q16-6 45-12 15-4 15-20 0-39-122-57-4-6-6-22t-8-26-18-10q-11 0-35 3t-36 4q-20 0-34-3-18-3-35-13t-33-21-32-22-43-19-55-8q-29 0-54 8t-41 19-33 22-32 21-35 13q-14 3-35 3-13 0-36-4t-33-5q-14 0-19 11t-8 26-6 23q-123 18-123 57 0 16 16 20 29 6 45 12 43 18 80 57t58 84q6 15 6 24 0 15-17 26t-39 17-39 17-18 29q0 15 15 26t31 10q8 0 26-7t30-7q10 0 18 4-5 79-5 106 0 68 15 100 36 76 96 110t147 36z" horiz-adv-x="928.6" />

<glyph glyph-name="snapchat-square" unicode="&#xf2ad;" d="M714 209q0 13-12 15-37 8-66 33t-44 61q-4 7-4 14 0 8 11 14t23 10 24 11 11 20q0 11-10 18t-22 7q-6 0-17-4t-18-5q-2 0-7 1 3 35 3 64 0 44-9 64-21 43-58 68t-85 24q-110 0-153-92-10-21-10-64 0-21 3-64-6-1-8-1-6 0-18 5t-17 4q-11 0-21-7t-10-18q0-12 11-20t24-11 24-10 11-14q0-7-4-14-36-77-111-94-12-2-12-15 0-26 77-38 1-3 3-15t6-17 13-5q7 0 22 3t21 3q20 0 38-9t30-18 32-18 43-8q24 0 44 8t32 18 30 18 38 9q7 0 22-3t22-2q8 0 12 5t7 17 2 14q77 12 77 38z m143 409v-536q0-66-47-113t-114-48h-535q-67 0-114 48t-47 113v536q0 66 47 113t114 48h535q67 0 114-48t47-113z" horiz-adv-x="857.1" />
</font>
</defs>
</svg>
